{"title":"Jessie J Ft. Big Sean &amp; Dizzee Rascal - Wild [Music Video] 1","uid":9315430,"size":96744607,"categoryP":"video","categoryS":"music_videos","magnet":"?xt=urn:btih:ddfc7f27c527eed744e44320452b4f2a0e23649e&amp;dn=Jessie+J+Ft.+Big+Sean+%26amp%3B+Dizzee+Rascal+-+Wild+%5BMusic+Video%5D+1&amp;tr=udp%3A%2F%2Ftracker.openbittorrent.com%3A80&amp;tr=udp%3A%2F%2Fopen.demonii.com%3A1337&amp;tr=udp%3A%2F%2Ftracker.coppersurfer.tk%3A6969&amp;tr=udp%3A%2F%2Fexodus.desync.com%3A6969","seeders":0,"leechers":0,"uploader":"Sbyky","files":1,"time":1386461614,"description":"\n\nGeneral\nComplete name                            : Jessie J Ft. Big Sean &amp; Dizzee Rascal - Wild [Music Video] 1080p [Sbyky].MP4\nFormat                                   : MPEG-4\nFormat profile                           : Base Media\nCodec ID                                 : isom\nFile size                                : 92.3 MiB\nDuration                                 : 4mn 47s\nOverall bit rate mode                    : Variable\nOverall bit rate                         : 2 693 Kbps\nEncoded date                             : UTC 2013-09-11 01:30:09\nTagged date                              : UTC 2013-09-11 01:30:09\n\nVideo\nID                                       : 1\nFormat                                   : AVC\nFormat/Info                              : Advanced Video Codec\nFormat profile                           : &lt;a class=&quot;__cf_email__&quot; href=&quot;/cdn-cgi/l/email-protection&quot; data-cfemail=&quot;d69ebfb1be969ae2f8e6&quot;&gt;[email&amp;#160;protected]&lt;/a&gt;&lt;script data-cfhash='f9e31' type=&quot;text/javascript&quot;&gt;\n/* &lt;![CDATA[ */!function(){try{var t=&quot;currentScript&quot;in document?document.currentScript:function(){for(var t=document.getElementsByTagName(&quot;script&quot;),e=t.length;e--;)if(t[e].getAttribute(&quot;data-cfhash&quot;))return t[e]}();if(t&amp;&amp;t.previousSibling){var e,r,n,i,c=t.previousSibling,a=c.getAttribute(&quot;data-cfemail&quot;);if(a){for(e=&quot;&quot;,r=parseInt(a.substr(0,2),16),n=2;a.length-n;n+=2)i=parseInt(a.substr(n,2),16)^r,e+=String.fromCharCode(i);e=document.createTextNode(e),c.parentNode.replaceChild(e,c)}t.parentNode.removeChild(t);}}catch(u){}}()/* ]]&gt; */&lt;/script&gt;\nFormat settings, CABAC                   : Yes\nFormat settings, ReFrames                : 2 frames\nCodec ID                                 : avc1\nCodec ID/Info                            : Advanced Video Coding\nDuration                                 : 4mn 47s\nBit rate                                 : 2 438 Kbps\nWidth                                    : 1 920 pixels\nHeight                                   : 1 080 pixels\nDisplay aspect ratio                     : 16:9\nFrame rate mode                          : Constant\nFrame rate                               : 25.000 fps\nColor space                              : YUV\nChroma subsampling                       : 4:2:0\nBit depth                                : 8 bits\nScan type                                : Progressive\nBits/(Pixel*Frame)                       : 0.047\nStream size                              : 83.5 MiB (90%)\nEncoded date                             : UTC 2013-09-11 01:30:09\nTagged date                              : UTC 2013-09-11 01:30:09\n\nAudio\nID                                       : 2\nFormat                                   : AAC\nFormat/Info                              : Advanced Audio Codec\nFormat profile                           : LC\nCodec ID                                 : 40\nDuration                                 : 4mn 47s\nBit rate mode                            : Variable\nBit rate                                 : 254 Kbps\nChannel(s)                               : 2 channels\nChannel positions                        : Front: L R\nSampling rate                            : 44.1 KHz\nCompression mode                         : Lossy\nDelay relative to video                  : 40ms\nStream size                              : 8.69 MiB (9%)\nEncoded date                             : UTC 2013-09-11 01:30:47\nTagged date                              : UTC 2013-09-11 01:30:47\n\nShared By Sbyky\n","torrent":{"xt":"urn:btih:ddfc7f27c527eed744e44320452b4f2a0e23649e","amp;dn":"Jessie+J+Ft.+Big+Sean+%26amp%3B+Dizzee+Rascal+-+Wild+%5BMusic+Video%5D+1","amp;tr":["udp%3A%2F%2Ftracker.openbittorrent.com%3A80","udp%3A%2F%2Fopen.demonii.com%3A1337","udp%3A%2F%2Ftracker.coppersurfer.tk%3A6969","udp%3A%2F%2Fexodus.desync.com%3A6969"],"infoHash":"ddfc7f27c527eed744e44320452b4f2a0e23649e","infoHashBuffer":{"type":"Buffer","data":[221,252,127,39,197,39,238,215,68,228,67,32,69,43,79,42,14,35,100,158]},"announce":[],"urlList":[]}}